<?xml version="1.0" encoding="UTF-8"?>
<svg id="Layer_2" data-name="Layer 2" xmlns="http://www.w3.org/2000/svg" viewBox="0 0 342.62 522.21">
  <defs>
    <style>
      .cls-1 {
        fill: #dda85e;
      }

      .cls-2 {
        fill: #f3de4a;
      }

      .cls-3 {
        fill: #f1df82;
      }
    </style>
  </defs>
  <path id="light_banana" data-name="light banana" class="cls-3" d="m172.14,9.93s19.45,2.9,24.83,8.28l22.34,33.1s0,53.38,48,97.66c0,0,150.62,98.48-30.21,310.34,0,0-100.55,99.31-208.14,32.28,0,0-12.83-12.83-11.59-16.55,0,0,9.43-14.07,3.31-21.1,0,0,252-78.62,204.41-290.9,0,0-29.38-78.62-38.07-81.93,0,0-9.1-7.03-6.62-15.72l-8.28-55.45Z"/>
  <path id="dark_banana" data-name="dark banana" class="cls-2" d="m248.22,127.88s77.02,133.22,13.3,243.7c0,0-84.65,172.53-241.36,109.85,0,0,85.77,88.77,216.94-22.13,0,0,188.58-196.92,11.12-331.43Z"/>
  <path id="brown" class="cls-1" d="m199.67,22.22v34.06l-19.26,9.1-8.28-55.45s21.24,2.96,27.53,12.28Z"/>
  <path class="cls-1" d="m20.69,453.93s6.21,13.66-3.31,21.1-4.77-18.3,3.31-21.1Z"/>
</svg>